<svg xmlns="http://www.w3.org/2000/svg" viewBox="0 0 459 459"><title>티스토리 로고</title><g><path fill="#eb531f" d="M229.5.0C102.75.0.0 102.75.0 229.5S102.75 459 229.5 459 459 356.25 459 229.5 356.25.0 229.5.0zM130.21 191.45a39.57 39.57.0 1139.56-39.57 39.58 39.58.0 01-39.56 39.57zM229.5 390a39.56 39.56.0 1139.56-39.56A39.56 39.56.0 01229.5 390zm0-99.29a39.56 39.56.0 1139.56-39.56A39.56 39.56.0 01229.5 290.74zm0-99.29a39.57 39.57.0 1139.56-39.57 39.57 39.57.0 01-39.56 39.6zm99.29.0a39.57 39.57.0 1139.57-39.57 39.57 39.57.0 01-39.57 39.6z"/></g></svg>